<?xml version="1.0" standalone="no"?>
<!DOCTYPE svg PUBLIC "-//W3C//DTD SVG 20010904//EN"
 "http://www.w3.org/TR/2001/REC-SVG-20010904/DTD/svg10.dtd">
<svg version="1.0" xmlns="http://www.w3.org/2000/svg"
 width="700.000000pt" height="700.000000pt" viewBox="0 0 700.000000 700.000000"
 preserveAspectRatio="xMidYMid meet">
<metadata>
Created by potrace 1.11, written by Peter Selinger 2001-2013
</metadata>
<g transform="translate(0.000000,700.000000) scale(0.100000,-0.100000)"
fill="#000000" stroke="none">
<path d="M3280 6994 c-19 -2 -84 -9 -145 -14 -375 -36 -778 -149 -1139 -318
-478 -226 -925 -586 -1261 -1017 -349 -447 -591 -996 -684 -1557 -38 -226 -45
-320 -45 -588 0 -268 7 -362 45 -588 84 -507 297 -1020 594 -1437 169 -237
442 -525 670 -708 515 -413 1133 -667 1820 -749 166 -19 597 -17 770 5 791
101 1474 427 2034 972 594 578 944 1297 1043 2140 7 62 13 220 13 365 0 145
-6 303 -13 365 -98 836 -442 1546 -1029 2127 -152 150 -254 237 -420 356 -487
347 -1017 552 -1623 628 -110 14 -556 27 -630 18z m-220 -3054 l0 -1750 875 0
875 0 0 -440 0 -440 -1310 0 -1310 0 0 2190 0 2190 435 0 435 0 0 -1750z
m1100 655 l0 -875 325 0 325 0 0 -330 0 -330 -655 0 -655 0 0 1205 0 1205 330
0 330 0 0 -875z"/>
</g>
</svg>
